<?xml version="1.0" encoding="UTF-8"?>
<svg width="24px" height="24px" viewBox="0 0 24 24" version="1.1" xmlns="http://www.w3.org/2000/svg" xmlns:xlink="http://www.w3.org/1999/xlink">
    <!-- Generator: sketchtool 54.1 (76490) - https://sketchapp.com -->
    <title>D3882CDB-835D-484E-A63C-CB97312594B0-1708-0001F1F4B3F35409</title>
    <desc>Created with sketchtool.</desc>
    <g id="09-Account" stroke="none" stroke-width="1" fill="none" fill-rule="evenodd">
        <g id="09-Account-01-Unternehmen" transform="translate(-92.000000, -308.000000)">
            <rect fill="#FAFAFA" x="0" y="0" width="1440" height="1444"></rect>
            <g id="Sidebar" transform="translate(80.000000, 136.000000)" fill="#000000" fill-rule="nonzero">
                <g id="Menu" transform="translate(0.000000, 48.000000)">
                    <g id="Item" transform="translate(0.000000, 112.000000)">
                        <g id="Icon" transform="translate(12.000000, 12.000000)">
                            <path d="M16.8789,15.707 L15.8279,16.758 C14.2699,18.316 11.7309,18.316 10.1719,16.758 L7.2419,13.828 C5.6829,12.269 5.6829,9.731 7.2419,8.172 L8.2929,7.121 C8.4879,6.926 8.7439,6.829 8.9999,6.829 C9.2559,6.829 9.5119,6.926 9.7069,7.121 L16.8789,14.293 C17.2689,14.683 17.2689,15.317 16.8789,15.707 M20.7069,7.293 C20.3169,6.902 19.6839,6.902 19.2929,7.293 L15.9999,10.586 L13.4139,8 L16.7069,4.707 C17.0979,4.316 17.0979,3.684 16.7069,3.293 C16.3169,2.902 15.6839,2.902 15.2929,3.293 L11.9999,6.586 L11.1209,5.707 C9.9509,4.537 8.0489,4.537 6.8789,5.707 L5.8279,6.758 C3.4889,9.097 3.4889,12.903 5.8279,15.242 L6.5859,16 L3.2929,19.293 C2.9019,19.684 2.9019,20.316 3.2929,20.707 C3.4879,20.902 3.7439,21 3.9999,21 C4.2559,21 4.5119,20.902 4.7069,20.707 L7.9999,17.414 L8.7579,18.172 C9.9279,19.342 11.4639,19.927 12.9999,19.927 C14.5359,19.927 16.0719,19.342 17.2419,18.172 L18.2929,17.121 C19.4629,15.951 19.4629,14.049 18.2929,12.879 L17.4139,12 L20.7069,8.707 C21.0979,8.316 21.0979,7.684 20.7069,7.293" id="Icon-Color"></path>
                        </g>
                    </g>
                </g>
            </g>
        </g>
    </g>
</svg>