<?xml version="1.0" encoding="UTF-8"?>
<svg width="24px" height="24px" viewBox="0 0 24 24" version="1.1" xmlns="http://www.w3.org/2000/svg" xmlns:xlink="http://www.w3.org/1999/xlink">
    <!-- Generator: sketchtool 54.1 (76490) - https://sketchapp.com -->
    <title>6C3DC9CA-BE26-4062-A488-AAE47C934B18-1708-0001F1F4B470422F</title>
    <desc>Created with sketchtool.</desc>
    <g id="09-Account" stroke="none" stroke-width="1" fill="none" fill-rule="evenodd">
        <g id="09-Account-01-Unternehmen" transform="translate(-92.000000, -212.000000)">
            <rect fill="#FAFAFA" x="0" y="0" width="1440" height="1444"></rect>
            <g id="Sidebar" transform="translate(80.000000, 136.000000)">
                <g id="Menu" transform="translate(0.000000, 48.000000)">
                    <g id="Item" transform="translate(0.000000, 16.000000)">
                        <rect id="Background" fill="#EAEAEC" x="0" y="4" width="302" height="40" rx="4"></rect>
                        <g id="Icon" transform="translate(12.000000, 12.000000)" fill="#000000" fill-rule="nonzero">
                            <path d="M12,7 L20,7 C21.1,7 22,7.9 22,9 L22,19 C22,20.1 21.1,21 20,21 L4,21 C2.9,21 2,20.1 2,19 L2,5 C2,3.9 2.9,3 4,3 L10,3 C11.1,3 12,3.9 12,5 L12,7 Z M19,19 C19.55,19 20,18.55 20,18 L20,10 C20,9.45 19.55,9 19,9 L12,9 L12,11 L14,11 L14,13 L12,13 L12,15 L14,15 L14,17 L12,17 L12,19 L19,19 Z M16,17 L16,15 L18,15 L18,17 L16,17 Z M16,13 L16,11 L18,11 L18,13 L16,13 Z M8,7 L10,7 L10,5 L8,5 L8,7 Z M8,11 L10,11 L10,9 L8,9 L8,11 Z M8,15 L10,15 L10,13 L8,13 L8,15 Z M8,19 L10,19 L10,17 L8,17 L8,19 Z M4,7 L6,7 L6,5 L4,5 L4,7 Z M4,11 L6,11 L6,9 L4,9 L4,11 Z M4,15 L6,15 L6,13 L4,13 L4,15 Z M4,19 L6,19 L6,17 L4,17 L4,19 Z" id="Icon-Color"></path>
                        </g>
                    </g>
                </g>
            </g>
        </g>
    </g>
</svg>