<?xml version="1.0" encoding="UTF-8"?>
<svg width="24px" height="24px" viewBox="0 0 24 24" version="1.1" xmlns="http://www.w3.org/2000/svg" xmlns:xlink="http://www.w3.org/1999/xlink">
    <!-- Generator: sketchtool 54.1 (76490) - https://sketchapp.com -->
    <title>2CF0571D-164D-4C01-B243-C1C6B302940C-1708-0001F1F4B4208AEC</title>
    <desc>Created with sketchtool.</desc>
    <g id="09-Account" stroke="none" stroke-width="1" fill="none" fill-rule="evenodd">
        <g id="09-Account-01-Unternehmen" transform="translate(-92.000000, -260.000000)">
            <rect fill="#FAFAFA" x="0" y="0" width="1440" height="1444"></rect>
            <g id="Sidebar" transform="translate(80.000000, 136.000000)" fill="#000000" fill-rule="nonzero">
                <g id="Menu" transform="translate(0.000000, 48.000000)">
                    <g id="Item" transform="translate(0.000000, 64.000000)">
                        <g id="Icon" transform="translate(12.000000, 12.000000)">
                            <path d="M12,12 C14.21,12 16,10.21 16,8 C16,5.79 14.21,4 12,4 C9.79,4 8,5.79 8,8 C8,10.21 9.79,12 12,12 Z M12,6 C13.1,6 14,6.9 14,8 C14,9.1 13.1,10 12,10 C10.9,10 10,9.1 10,8 C10,6.9 10.9,6 12,6 Z M12,13 C9.33,13 4,14.34 4,17 L4,19 C4,19.55 4.45,20 5,20 L19,20 C19.55,20 20,19.55 20,19 L20,17 C20,14.34 14.67,13 12,13 Z M18,18 L6,18 L6,17.01 C6.2,16.29 9.3,15 12,15 C14.7,15 17.8,16.29 18,17 L18,18 Z" id="Icon-Color"></path>
                        </g>
                    </g>
                </g>
            </g>
        </g>
    </g>
</svg>